<?xml version="1.0" standalone="no"?>
<!DOCTYPE svg PUBLIC "-//W3C//DTD SVG 20010904//EN"
 "http://www.w3.org/TR/2001/REC-SVG-20010904/DTD/svg10.dtd">
<svg version="1.0" xmlns="http://www.w3.org/2000/svg"
 width="500.000000pt" height="500.000000pt" viewBox="0 0 500.000000 500.000000"
 preserveAspectRatio="xMidYMid meet">
<metadata>
Created by potrace 1.14, written by Peter Selinger 2001-2017
</metadata>
<g transform="translate(0.000000,500.000000) scale(0.100000,-0.100000)"
fill="#000000" stroke="none">
<path d="M2050 4890 c-8 -5 -15 -13 -15 -17 -1 -4 -6 -17 -12 -29 -7 -11 -13
-53 -15 -92 -1 -40 -5 -72 -9 -72 -4 0 -5 -17 -3 -37 10 -85 10 -114 1 -120
-5 -3 -4 -8 2 -13 8 -5 9 -14 2 -33 -8 -19 -7 -27 0 -27 8 0 7 -5 -1 -15 -7
-8 -9 -15 -4 -15 5 0 10 -26 12 -57 2 -32 7 -62 13 -67 5 -6 9 -20 9 -33 0
-13 4 -23 9 -23 6 0 8 -9 6 -21 -5 -27 43 -135 55 -123 16 16 32 191 18 200
-4 3 -3 15 2 28 5 13 6 27 3 30 -5 5 -14 119 -14 189 0 9 -4 15 -10 12 -5 -4
-9 -1 -9 4 0 6 7 11 16 11 8 0 12 5 9 11 -4 6 -8 65 -10 132 -4 151 -19 199
-55 177z"/>
<path d="M4366 4629 c-16 -5 -32 -6 -36 -4 -4 2 -16 -5 -28 -15 -12 -11 -24
-20 -28 -20 -3 0 -15 -11 -26 -25 -11 -14 -26 -25 -34 -25 -8 0 -14 -5 -14
-11 0 -5 -4 -8 -8 -5 -10 6 -62 -37 -62 -52 0 -6 -8 -13 -17 -16 -25 -8 -77
-56 -92 -84 -7 -12 -15 -20 -19 -18 -5 3 -8 -4 -9 -14 -1 -11 3 -23 9 -26 6
-4 5 -10 -3 -15 -18 -11 -32 -11 -25 0 3 5 -5 9 -19 9 -14 0 -22 -4 -19 -9 3
-5 -6 -14 -21 -21 -14 -6 -28 -22 -31 -35 -4 -13 -14 -23 -24 -23 -10 0 -25
-10 -33 -22 -8 -13 -42 -52 -76 -87 -34 -35 -61 -68 -61 -73 0 -5 -4 -7 -10
-3 -5 3 -17 -6 -26 -20 -9 -14 -23 -25 -31 -25 -7 0 -13 -6 -11 -14 2 -7 -13
-29 -33 -47 -19 -19 -38 -42 -42 -51 -3 -10 -13 -18 -22 -18 -8 0 -15 -8 -15
-18 0 -18 -45 -72 -60 -72 -5 0 -1 -15 8 -32 30 -53 67 -50 117 8 22 26 60 68
85 94 25 25 52 56 60 68 8 12 20 22 27 22 7 0 18 9 25 20 7 11 18 20 25 20 7
0 13 5 13 11 0 5 5 7 10 4 9 -6 14 8 11 28 -1 5 12 14 28 20 16 6 34 21 40 34
7 15 16 21 24 17 6 -4 9 -4 5 0 -7 8 21 46 35 46 12 0 43 32 50 53 4 9 17 21
29 26 21 8 72 51 151 127 15 15 27 33 27 41 0 8 4 12 9 9 4 -3 19 6 31 19 13
14 29 25 35 25 12 0 118 101 161 153 38 46 0 68 -80 46z"/>
<path d="M2917 4434 c-5 -5 -28 -11 -49 -13 -5 -1 -8 -8 -8 -17 0 -15 -23 -62
-45 -93 -5 -8 -11 -27 -11 -43 -1 -15 -2 -29 -4 -30 -1 -2 -4 -16 -6 -33 -6
-32 -61 -173 -77 -192 -6 -9 -6 -13 2 -13 7 0 9 -5 5 -12 -4 -6 -8 -23 -10
-37 -1 -14 -3 -26 -4 -26 -1 0 -3 -11 -5 -25 -6 -51 43 -100 92 -92 20 3 63
52 46 52 -5 0 -2 4 4 8 7 5 14 21 16 38 2 16 11 43 19 59 8 17 15 45 14 63 0
19 2 36 6 39 5 2 8 15 8 28 0 13 5 27 10 30 6 4 10 12 9 18 -1 7 3 26 10 42 7
17 11 42 9 57 -3 15 0 29 6 31 13 4 25 117 13 124 -6 4 -7 1 -2 -7 5 -8 4 -11
-3 -6 -6 4 -9 12 -6 19 4 12 -30 40 -39 31z"/>
<path d="M2759 3650 c0 -3 -2 -13 -4 -23 -2 -10 1 -14 7 -11 6 4 9 1 6 -6 -2
-7 -13 -15 -24 -16 -104 -16 -151 -14 -140 4 2 4 -2 16 -10 27 -14 19 -15 19
-20 -3 -4 -12 -10 -20 -14 -17 -5 3 -11 2 -14 -3 -2 -4 -36 -7 -75 -7 -39 0
-71 -2 -71 -6 0 -6 -136 -5 -150 1 -6 3 -2 3 -65 -5 -28 -3 -59 -7 -70 -9 -11
-3 -28 -5 -37 -5 -9 -1 -24 -8 -32 -17 -9 -8 -16 -11 -16 -5 0 8 -6 7 -19 -1
-11 -7 -18 -14 -17 -18 2 -3 -5 -14 -16 -25 -17 -18 -19 -18 -12 -1 7 17 6 17
-25 1 -18 -9 -35 -14 -38 -11 -3 3 -26 -15 -50 -39 -25 -25 -49 -45 -53 -45
-5 0 -21 -11 -35 -25 -14 -14 -25 -22 -25 -18 0 4 -12 -10 -27 -32 -15 -22
-27 -43 -25 -47 1 -5 -3 -8 -8 -8 -13 0 -50 -37 -50 -50 0 -5 -5 -10 -11 -10
-8 0 -9 -4 0 -13 13 -17 4 -28 -17 -20 -10 4 -13 2 -8 -5 3 -6 2 -13 -4 -17
-6 -4 -8 -10 -5 -15 3 -5 -6 -20 -20 -34 -14 -14 -25 -29 -25 -35 0 -5 -5 -11
-10 -13 -6 -2 -12 -14 -12 -28 -1 -14 -5 -27 -8 -30 -13 -10 -51 -102 -47
-113 2 -7 -2 -18 -9 -25 -11 -11 -19 -31 -40 -107 -2 -5 -6 -23 -9 -40 -3 -16
-9 -39 -13 -50 -3 -11 -7 -40 -8 -65 0 -25 -6 -57 -12 -71 -5 -14 -9 -42 -7
-62 2 -21 0 -37 -5 -37 -8 0 -8 -8 4 -67 3 -14 0 -23 -7 -23 -8 0 -8 -3 -2 -8
6 -4 11 -45 11 -92 1 -47 4 -112 8 -145 3 -33 7 -71 9 -85 1 -14 7 -28 12 -32
6 -5 6 -8 -2 -8 -12 0 -7 -60 6 -70 3 -3 8 -18 9 -35 2 -16 11 -38 19 -47 8
-9 16 -34 18 -55 1 -21 9 -55 18 -75 8 -20 14 -45 13 -54 -2 -10 3 -37 10 -60
7 -23 10 -45 7 -48 -4 -3 -2 -6 3 -6 6 0 16 -22 23 -50 7 -27 17 -50 22 -50 5
0 9 -9 9 -20 0 -11 5 -20 12 -20 6 0 9 -3 6 -6 -9 -8 28 -42 49 -46 10 -2 23
-12 29 -23 6 -11 15 -19 20 -18 6 1 8 -12 6 -29 -4 -26 -2 -30 12 -25 9 4 16
2 16 -3 0 -6 3 -9 8 -8 15 3 58 -21 89 -50 33 -31 83 -50 83 -32 0 6 10 8 23
5 12 -3 48 -7 79 -8 35 -2 65 -10 75 -20 10 -8 23 -17 28 -18 21 -4 45 -24 45
-37 0 -8 9 -11 23 -8 31 5 52 -8 41 -25 -6 -11 -4 -11 10 0 9 8 16 10 15 5 -4
-25 3 -32 28 -28 15 3 33 10 39 15 7 6 34 7 66 3 103 -14 296 0 365 27 15 6
62 17 103 26 41 8 80 15 85 17 6 1 15 4 20 7 6 3 33 12 60 19 28 7 78 26 113
42 34 16 67 26 72 23 6 -3 10 -1 10 6 0 7 10 9 25 7 13 -3 26 -2 27 1 2 3 17
13 35 22 22 12 34 14 42 6 8 -8 11 -7 11 2 0 8 6 11 16 7 8 -3 12 -2 9 4 -3 6
1 10 9 10 9 0 16 5 16 10 0 6 3 9 8 8 12 -3 62 25 62 34 0 5 4 7 8 4 11 -6 82
57 82 73 0 7 5 9 10 6 6 -3 10 -2 10 4 0 6 6 8 13 5 8 -3 14 2 14 10 0 8 -5
13 -11 10 -6 -3 0 4 14 15 14 11 28 21 33 21 4 0 7 7 7 15 0 8 5 15 11 15 5 0
8 4 4 9 -3 5 8 18 24 27 17 10 28 21 25 25 -2 4 3 15 13 24 9 9 16 30 16 46 0
27 7 33 33 30 16 -2 27 31 14 39 -11 7 29 40 49 40 5 0 8 11 6 25 -2 19 3 27
20 31 21 5 51 48 47 67 -1 4 4 7 11 7 8 0 14 7 14 14 0 11 -5 12 -18 6 -13 -7
-18 -5 -22 10 -3 11 -2 18 2 17 14 -4 71 26 71 39 0 8 5 14 11 14 17 0 59 104
45 112 -7 5 -6 8 4 8 12 0 13 2 1 9 -11 7 -9 10 8 16 11 3 21 13 21 20 0 26
17 24 70 -10 29 -19 57 -32 61 -29 5 3 29 -9 54 -26 25 -17 45 -27 45 -23 0 4
4 3 8 -3 11 -16 114 -64 123 -58 5 3 9 0 9 -5 0 -16 136 -74 151 -66 4 3 9 -1
12 -9 5 -13 111 -52 130 -48 4 1 7 -3 7 -9 0 -6 8 -3 17 6 15 16 14 19 -20 52
-20 19 -37 32 -37 28 0 -3 -19 13 -42 36 -23 22 -68 55 -100 72 -32 16 -58 34
-58 39 0 5 -4 6 -10 3 -6 -3 -10 -2 -10 4 0 5 -10 13 -22 17 -13 4 -26 11 -29
16 -3 5 -12 10 -20 11 -23 4 -82 29 -109 47 -46 31 -141 80 -155 80 -18 0 -27
28 -15 49 7 14 4 23 -10 36 -25 23 -26 39 -1 26 15 -8 20 -7 25 5 11 27 6 62
-9 78 -8 8 -15 17 -15 20 0 3 7 6 15 6 26 0 18 58 -11 85 -15 14 -31 25 -35
25 -5 0 -9 5 -9 10 0 6 7 10 15 10 8 0 15 7 15 16 0 8 4 13 8 10 10 -6 8 29
-3 68 l-8 29 -17 -23 c-13 -17 -17 -18 -17 -6 0 9 5 16 11 16 21 0 -11 21 -35
22 -13 1 -33 8 -44 15 -19 13 -18 14 10 8 17 -4 35 -8 41 -10 15 -4 -10 48
-31 65 -8 7 -15 19 -15 26 0 8 -8 14 -17 14 -29 0 -40 13 -47 54 -7 38 -7 39
11 25 16 -13 17 -13 4 3 -7 10 -18 15 -23 12 -5 -3 -12 3 -15 15 -3 12 -9 21
-14 21 -5 0 -9 7 -9 15 0 8 6 14 13 12 13 -2 18 32 6 48 -4 6 -5 15 -1 21 7
12 81 40 95 36 4 -1 7 2 7 7 0 5 17 15 38 22 20 6 42 14 47 18 6 3 15 6 20 7
14 3 80 20 144 39 43 12 57 12 63 2 6 -9 8 -9 8 1 0 6 8 12 18 12 9 0 33 11
52 23 19 13 40 22 47 20 6 -2 14 1 18 6 3 6 17 11 31 11 14 0 36 7 50 16 13 9
27 14 31 11 3 -4 15 -1 27 5 21 12 27 14 46 17 6 0 10 10 10 21 0 26 -34 39
-75 30 -16 -4 -60 -8 -98 -9 -37 -1 -87 -9 -110 -17 -46 -17 -76 -24 -123 -28
-17 -2 -40 -9 -52 -15 -12 -6 -22 -9 -22 -5 0 3 -6 2 -12 -3 -7 -6 -25 -13
-41 -17 -15 -4 -51 -17 -80 -30 -28 -13 -68 -30 -87 -37 -19 -7 -48 -24 -65
-37 -26 -22 -30 -23 -33 -8 -2 11 -10 15 -19 12 -8 -3 -17 -6 -19 -6 -3 0 -2
-6 2 -12 5 -10 4 -10 -6 -1 -10 9 -10 16 -2 25 16 19 -1 40 -29 36 -25 -3 -26
1 -14 40 6 22 5 22 -15 10 -19 -11 -23 -11 -27 0 -4 10 -12 7 -30 -10 l-25
-23 6 22 c4 13 3 30 -2 39 -8 15 -11 14 -26 -7 -9 -13 -16 -19 -17 -14 -4 59
-22 72 -73 50 -12 -5 -21 -3 -27 6 -11 17 -12 39 -1 24 12 -17 43 -14 40 4 -2
9 3 15 10 13 8 -1 11 2 7 8 -3 6 -11 8 -16 5 -5 -4 -9 0 -9 7 0 9 -3 9 -10 -2
-9 -13 -10 -13 -10 0 0 13 -1 13 -10 0 -8 -13 -11 -13 -22 -1 -7 8 -8 11 -2 8
7 -4 18 1 25 10 13 14 11 16 -13 11 -27 -5 -34 4 -29 35 1 5 -8 6 -19 2 -11
-3 -20 -2 -20 3 0 11 -25 10 -35 0 -12 -11 -44 4 -38 18 3 8 10 11 15 8 6 -4
8 -1 6 7 -3 8 -11 13 -17 11 -6 -1 -11 5 -11 14 0 10 -7 14 -22 12 -13 -2 -28
3 -34 11 -6 7 -22 15 -37 16 -19 2 -24 -1 -20 -12 5 -13 3 -13 -16 -4 -12 7
-25 19 -28 27 -4 11 -9 12 -19 3 -8 -7 -14 -7 -14 -2 0 6 -15 9 -32 7 -18 -1
-27 0 -20 3 6 2 9 9 6 14 -3 6 -11 5 -20 -2 -8 -6 -17 -9 -21 -5 -3 3 -1 6 5
6 7 0 12 5 12 12 0 7 -6 6 -17 -4 -28 -24 -44 -31 -41 -18 2 7 -6 14 -17 17
-23 5 -21 5 -92 0 -45 -4 -52 -2 -58 17 -7 21 -8 21 -12 -1 -2 -13 -9 -23 -14
-23 -6 0 -8 4 -5 9 3 5 -2 8 -12 7 -12 -1 -16 5 -14 18 3 16 1 18 -10 8 -11
-9 -17 -9 -26 0 -7 7 -12 10 -13 8z m451 -130 c14 -7 66 -4 72 4 4 6 13 4 22
-3 9 -8 16 -10 16 -7 0 4 7 0 16 -9 9 -9 13 -19 10 -22 -10 -10 -36 -12 -36
-3 0 5 -25 7 -56 6 -36 -2 -60 2 -69 11 -8 7 -21 13 -29 13 -9 0 -16 4 -16 9
0 7 56 8 70 1z m-1020 -85 c0 -7 -7 -15 -15 -19 -8 -3 -15 -13 -15 -22 0 -10
-3 -14 -7 -11 -3 4 -12 2 -19 -4 -8 -6 -32 -13 -55 -15 -22 -2 -49 -9 -59 -14
-10 -6 -25 -10 -33 -10 -13 0 -13 4 -4 25 9 17 18 23 34 20 12 -2 34 5 48 16
14 11 25 17 25 14 0 -4 11 2 25 12 30 21 75 26 75 8z m1560 -235 c0 -5 -2 -10
-4 -10 -3 0 -8 5 -11 10 -3 6 -1 10 4 10 6 0 11 -4 11 -10z m-1977 -57 c-7
-19 -28 -43 -37 -43 -12 0 -6 20 11 40 21 25 35 26 26 3z m2027 -4 c0 -4 7 -6
15 -3 17 7 21 -11 5 -21 -6 -4 -7 -11 -4 -17 4 -6 1 -9 -6 -6 -6 2 -18 18 -25
35 -12 27 -11 31 1 26 8 -3 14 -9 14 -14z"/>
<path d="M2630 3630 c0 -5 5 -10 10 -10 6 0 10 5 10 10 0 6 -4 10 -10 10 -5 0
-10 -4 -10 -10z"/>
<path d="M2897 3633 c-10 -9 -9 -23 1 -23 5 0 9 7 9 15 0 17 -1 18 -10 8z"/>
<path d="M703 3609 c-13 -13 3 -59 21 -59 6 0 17 -9 24 -20 7 -11 19 -20 27
-20 8 0 15 -6 15 -12 0 -7 18 -23 40 -36 22 -12 40 -27 40 -32 0 -6 6 -10 14
-10 7 0 30 -16 50 -35 21 -19 42 -35 47 -35 6 0 21 -11 35 -25 14 -14 28 -25
32 -25 4 0 22 -13 40 -30 18 -16 38 -30 43 -30 6 0 8 -3 6 -7 -6 -10 19 -34
27 -26 3 4 6 1 6 -6 0 -7 5 -9 10 -6 5 3 10 -1 10 -10 0 -9 4 -14 9 -11 4 3
16 -1 27 -8 10 -8 24 -12 31 -9 7 3 13 1 13 -4 0 -10 44 -34 71 -39 24 -5 45
22 24 30 -8 3 -15 12 -15 19 0 8 -13 26 -30 40 -16 15 -30 35 -30 44 0 9 -3
14 -6 10 -6 -6 -42 23 -86 71 -12 12 -27 22 -34 22 -7 0 -34 20 -61 45 -26 25
-53 45 -60 45 -7 0 -13 3 -13 8 0 12 -96 62 -105 54 -5 -4 -5 -1 -1 6 4 7 0
15 -11 19 -10 4 -24 13 -31 20 -48 47 -156 85 -179 62z"/>
<path d="M3396 3512 c-3 -5 1 -13 10 -16 24 -9 44 -7 44 5 0 6 -7 8 -17 5 -9
-4 -20 -2 -23 5 -5 7 -10 8 -14 1z"/>
<path d="M3550 3446 c0 -2 7 -7 16 -10 8 -3 12 -2 9 4 -6 10 -25 14 -25 6z"/>
<path d="M3590 3430 c0 -5 5 -10 11 -10 5 0 7 5 4 10 -3 6 -8 10 -11 10 -2 0
-4 -4 -4 -10z"/>
<path d="M3620 3406 c0 -3 9 -10 20 -16 11 -6 20 -8 20 -6 0 3 -9 10 -20 16
-11 6 -20 8 -20 6z"/>
<path d="M4674 3364 c-18 -14 -18 -15 4 -4 12 6 22 13 22 15 0 8 -5 6 -26 -11z"/>
<path d="M3720 3295 c-7 -9 -8 -15 -2 -15 5 0 12 7 16 15 3 8 4 15 2 15 -2 0
-9 -7 -16 -15z"/>
<path d="M930 2423 c-25 -2 -52 -6 -60 -10 -8 -3 -21 -7 -29 -9 -8 -1 -26 -6
-40 -10 -63 -18 -73 -25 -61 -39 13 -16 11 -15 155 -19 153 -4 208 21 153 70
-24 21 -43 23 -118 17z"/>
<path d="M1250 1551 c-74 -42 -168 -112 -185 -137 -8 -13 -20 -24 -25 -24 -5
0 -25 -16 -44 -35 -20 -19 -38 -35 -42 -35 -14 0 -394 -393 -394 -408 0 -4
-13 -19 -30 -34 -16 -14 -26 -28 -23 -32 4 -3 0 -6 -7 -6 -7 0 -11 -3 -7 -6 8
-8 -39 -71 -80 -108 -18 -15 -30 -32 -28 -36 3 -5 1 -12 -5 -15 -15 -9 -61
-83 -67 -109 -7 -28 -8 -85 -1 -91 10 -11 54 16 73 45 11 16 23 26 27 24 4 -3
8 -1 8 5 0 5 -3 11 -7 14 -5 2 -2 2 5 0 19 -4 71 47 65 64 -3 8 2 13 13 13 9
0 15 2 12 5 -3 3 8 19 24 35 16 17 27 34 24 39 -4 5 2 12 12 15 11 4 24 18 30
31 6 14 15 25 20 25 6 0 50 54 97 119 6 8 33 38 62 67 28 30 69 75 90 101 39
49 50 60 127 130 25 23 46 45 46 48 0 9 71 75 81 75 5 0 9 5 9 11 0 5 -4 8 -9
5 -5 -3 -11 3 -14 14 -7 26 7 34 23 15 16 -19 30 -19 30 -1 0 14 27 31 43 27
5 -1 6 3 2 9 -3 5 1 13 11 17 18 7 69 51 117 101 14 15 15 21 5 29 -26 20 -44
19 -88 -6z m-415 -411 c3 -5 -1 -10 -10 -10 -9 0 -13 5 -10 10 3 6 8 10 10 10
2 0 7 -4 10 -10z"/>
<path d="M3715 1322 c-6 -6 43 -101 71 -139 13 -17 24 -36 24 -42 0 -6 4 -11
10 -11 5 0 7 -7 3 -15 -3 -9 2 -24 11 -34 9 -10 13 -21 9 -24 -3 -4 -1 -7 5
-7 6 0 14 -10 18 -22 12 -37 70 -90 96 -86 20 3 23 9 24 53 0 55 -15 107 -29
98 -5 -3 -6 4 -2 16 3 11 2 21 -3 21 -6 0 -27 25 -47 55 -58 87 -122 146 -157
143 -16 -1 -31 -4 -33 -6z"/>
<path d="M1746 1202 c-3 -6 -1 -14 5 -17 14 -9 20 -2 10 14 -6 8 -11 9 -15 3z"/>
<path d="M3181 1069 c-6 -19 -7 -37 -2 -43 8 -10 16 -59 27 -169 2 -21 11 -52
20 -68 8 -17 13 -37 10 -44 -2 -7 -2 -16 2 -20 4 -4 7 -10 8 -13 2 -28 17 -72
24 -72 5 0 7 -6 4 -13 -2 -7 3 -40 11 -73 9 -32 17 -63 19 -69 1 -5 8 -21 15
-33 7 -13 10 -26 7 -29 -3 -3 6 -27 20 -54 13 -27 24 -50 23 -51 -6 -15 30
-57 59 -70 38 -17 68 -8 58 17 -2 7 -1 17 4 24 4 7 3 29 -2 50 -5 20 -10 43
-13 53 -2 9 -10 29 -19 46 -8 16 -12 33 -8 37 4 3 -1 13 -11 20 -15 10 -17 21
-12 44 4 17 3 31 -2 31 -5 0 -14 14 -20 30 -6 17 -7 30 -2 30 4 0 0 15 -11 33
-10 17 -21 43 -24 57 -17 78 -38 151 -52 186 -10 21 -19 55 -21 74 -2 19 -8
39 -14 45 -5 5 -9 16 -9 25 0 23 -32 50 -57 50 -15 0 -24 -10 -32 -31z"/>
<path d="M2132 952 c-15 -5 -32 -42 -39 -87 -3 -16 -10 -33 -15 -36 -6 -4 -8
-11 -4 -17 3 -5 -1 -26 -9 -45 -8 -20 -15 -53 -14 -74 0 -163 0 -163 11 -163
5 0 6 -4 3 -10 -7 -11 15 -13 40 -4 20 8 65 104 64 136 -1 13 3 37 8 53 6 17
9 38 7 48 -1 9 1 17 4 17 9 0 4 116 -7 171 -2 9 -34 17 -49 11z"/>
</g>
</svg>
